<svg width="1024" height="1024" viewBox="0 0 1024 1024" fill="none" xmlns="http://www.w3.org/2000/svg">
<rect width="1024" height="1024" fill="#1E1E1E"/>
<g clip-path="url(#clip0_0_1)">
<rect width="1024" height="1024" fill="#F84713"/>
<path d="M276 725C276 720.333 276.333 716 277 712C278.333 704.667 283.667 700.667 293 700C313 696.667 330 686.667 344 670L462 525L326 321H280V295H512V321H457L545 454L648 321H583V295H731C731 299.667 730.667 304 730 308C728 314.667 722 318.667 712 320C691.333 322 674.333 332 661 350L562 479L708 699H728C731.333 699 734.333 699.333 737 700C747.667 701.333 753 709.667 753 725H522V699H577L477 549L357 699H427V725H276Z" fill="black"/>
</g>
<defs>
<clipPath id="clip0_0_1">
<rect width="1024" height="1024" fill="white"/>
</clipPath>
</defs>
</svg>
